GIL08_fast1_ik
nRows=3
nColumns=375

# SIMM Motion File Header:
name GIL08_fast1_ik
datacolumns 375
datarows 3
otherdata 1
range 0.55000000 0.56667000
endheader
time	pelvis_tx	pelvis_ty	pelvis_tz	pelvis_tilt	pelvis_list	pelvis_rotation	hip_flexion_r	hip_adduction_r	hip_rotation_r	knee_angle_r	ankle_angle_r	hip_flexion_l	hip_adduction_l	hip_rotation_l	knee_angle_l	ankle_angle_l	lumbar_extension	lumbar_bending	lumbar_rotation	subtalar_angle_r	mtp_angle_r	subtalar_angle_l	mtp_angle_l	asis_r_px	asis_r_py	asis_r_pz	asis_l_px	asis_l_py	asis_l_pz	midasis_px	midasis_py	midasis_pz	psis_r_px	psis_r_py	psis_r_pz	psis_l_px	psis_l_py	psis_l_pz	hip_r_px	hip_r_py	hip_r_pz	hip_l_px	hip_l_py	hip_l_pz	midhip_px	midhip_py	midhip_pz	epicondLat_r_px	epicondLat_r_py	epicondLat_r_pz	epicondMed_r_px	epicondMed_r_py	epicondMed_r_pz	thighwand_r_px	thighwand_r_py	thighwand_r_pz	upperleg1_r_px	upperleg1_r_py	upperleg1_r_pz	upperleg2_r_px	upperleg2_r_py	upperleg2_r_pz	malleolusLat_r_px	malleolusLat_r_py	malleolusLat_r_pz	malleolusMedv_r_px	malleolusMedv_r_py	malleolusMedv_r_pz	shankwand_r_px	shankwand_r_py	shankwand_r_pz	lowerleg1_r_px	lowerleg1_r_py	lowerleg1_r_pz	knee_r_px	knee_r_py	knee_r_pz	ankle_r_px	ankle_r_py	ankle_r_pz	toe_r_px	toe_r_py	toe_r_pz	epicondLat_l_px	epicondLat_l_py	epicondLat_l_pz	epicondMed_l_px	epicondMed_l_py	epicondMed_l_pz	thighwand_l_px	thighwand_l_py	thighwand_l_pz	upperleg1_l_px	upperleg1_l_py	upperleg1_l_pz	upperleg2_l_px	upperleg2_l_py	upperleg2_l_pz	malleolusLat_l_px	malleolusLat_l_py	malleolusLat_l_pz	malleolusMedv_l_px	malleolusMedv_l_py	malleolusMedv_l_pz	shankwand_l_px	shankwand_l_py	shankwand_l_pz	lowerleg1_l_px	lowerleg1_l_py	lowerleg1_l_pz	knee_l_px	knee_l_py	knee_l_pz	ankle_l_px	ankle_l_py	ankle_l_pz	toe_l_px	toe_l_py	toe_l_pz	subclavicle_r_px	subclavicle_r_py	subclavicle_r_pz	subclavicle_l_px	subclavicle_l_py	subclavicle_l_pz	neck_px	neck_py	neck_pz	sternalnotch_px	sternalnotch_py	sternalnotch_pz	xyphoidprocess_px	xyphoidprocess_py	xyphoidprocess_pz	midhip_tx	midhip_ty	midhip_tz	hip_r_tx	hip_r_ty	hip_r_tz	hip_l_tx	hip_l_ty	hip_l_tz	knee_r_tx	knee_r_ty	knee_r_tz	knee_l_tx	knee_l_ty	knee_l_tz	ankle_r_tx	ankle_r_ty	ankle_r_tz	ankle_l_tx	ankle_l_ty	ankle_l_tz	midasis_tx	midasis_ty	midasis_tz	asis_r_tx	asis_r_ty	asis_r_tz	asis_l_tx	asis_l_ty	asis_l_tz	psis_r_tx	psis_r_ty	psis_r_tz	psis_l_tx	psis_l_ty	psis_l_tz	epicondLat_r_tx	epicondLat_r_ty	epicondLat_r_tz	epicondLat_l_tx	epicondLat_l_ty	epicondLat_l_tz	epicondMed_r_tx	epicondMed_r_ty	epicondMed_r_tz	epicondMed_l_tx	epicondMed_l_ty	epicondMed_l_tz	malleolusLat_r_tx	malleolusLat_r_ty	malleolusLat_r_tz	malleolusLat_l_tx	malleolusLat_l_ty	malleolusLat_l_tz	malleolusMedv_r_tx	malleolusMedv_r_ty	malleolusMedv_r_tz	malleolusMedv_l_tx	malleolusMedv_l_ty	malleolusMedv_l_tz	neck_tx	neck_ty	neck_tz	subclavicle_r_tx	subclavicle_r_ty	subclavicle_r_tz	subclavicle_l_tx	subclavicle_l_ty	subclavicle_l_tz	sternalnotch_tx	sternalnotch_ty	sternalnotch_tz	xyphoidprocess_tx	xyphoidprocess_ty	xyphoidprocess_tz	thighwand_r_tx	thighwand_r_ty	thighwand_r_tz	thighwand_l_tx	thighwand_l_ty	thighwand_l_tz	upperleg1_r_tx	upperleg1_r_ty	upperleg1_r_tz	upperleg1_l_tx	upperleg1_l_ty	upperleg1_l_tz	upperleg2_r_tx	upperleg2_r_ty	upperleg2_r_tz	upperleg2_l_tx	upperleg2_l_ty	upperleg2_l_tz	shankwand_r_tx	shankwand_r_ty	shankwand_r_tz	shankwand_l_tx	shankwand_l_ty	shankwand_l_tz	lowerleg1_r_tx	lowerleg1_r_ty	lowerleg1_r_tz	lowerleg1_l_tx	lowerleg1_l_ty	lowerleg1_l_tz	toe_r_tx	toe_r_ty	toe_r_tz	toe_l_tx	toe_l_ty	toe_l_tz	ground_force_vx	ground_force_vy	ground_force_vz	ground_force_px	ground_force_py	ground_force_pz	ground_force_vx	ground_force_vy	ground_force_vz	ground_force_px	ground_force_py	ground_force_pz	ground_torque_x	ground_torque_y	ground_torque_z	ground_torque_x	ground_torque_y	ground_torque_z	ground_marker_px	ground_marker_py	ground_marker_pz	ground_marker_px	ground_marker_py	ground_marker_pz	ground_marker_px	ground_marker_py	ground_marker_pz	ground_marker_px	ground_marker_py	ground_marker_pz	ground_marker_px	ground_marker_py	ground_marker_pz	ground_marker_px	ground_marker_py	ground_marker_pz	ground_marker_px	ground_marker_py	ground_marker_pz	ground_marker_px	ground_marker_py	ground_marker_pz	ground_marker_px	ground_marker_py	ground_marker_pz	ground_marker_px	ground_marker_py	ground_marker_pz	ground_marker_px	ground_marker_py	ground_marker_pz	ground_marker_px	ground_marker_py	ground_marker_pz	ground_marker_px	ground_marker_py	ground_marker_pz	ground_marker_px	ground_marker_py	ground_marker_pz	ground_marker_px	ground_marker_py	ground_marker_pz	ground_marker_px	ground_marker_py	ground_marker_pz	ground_marker_px	ground_marker_py	ground_marker_pz	ground_marker_px	ground_marker_py	ground_marker_pz	ground_marker_px	ground_marker_py	ground_marker_pz	ground_marker_px	ground_marker_py	ground_marker_pz	ground_marker_px	ground_marker_py	ground_marker_pz	ground_marker_px	ground_marker_py	ground_marker_pz	ground_marker_px	ground_marker_py	ground_marker_pz	ground_marker_px	ground_marker_py	ground_marker_pz	ground_marker_px	ground_marker_py	ground_marker_pz	ground_marker_px	ground_marker_py	ground_marker_pz	ground_marker_px	ground_marker_py	ground_marker_pz	ground_marker_px	ground_marker_py	ground_marker_pz	ground_marker_px	ground_marker_py	ground_marker_pz	ground_marker_px	ground_marker_py	ground_marker_pz	ground_marker_px	ground_marker_py	ground_marker_pz	ground_marker_px	ground_marker_py	ground_marker_pz	ground_marker_px	ground_marker_py	ground_marker_pz	ground_marker_px	ground_marker_py	ground_marker_pz	ground_marker_px	ground_marker_py	ground_marker_pz	ground_marker_px	ground_marker_py	ground_marker_pz	ground_marker_px	ground_marker_py	ground_marker_pz
      0.55000000	      1.24202354	      0.91764832	     -0.26441246	      2.90542889	     -2.68842558	      7.88223732	     26.84581128	     -0.33724575	     -1.35198398	    -25.82394329	     -5.12520704	    -22.93633919	     -7.78000913	      2.50032618	    -23.15546847	     -5.40378361	     -7.65669783	      4.37863712	     -8.47922978	      0.00000000	      0.00000000	      0.00000000	      0.00000000	      1.30241323	      0.94459878	     -0.17363811	      1.26654954	      0.93672724	     -0.38340331	      1.25355077	      0.91815834	     -0.26600812	      1.09151272	      0.94432680	     -0.20131790	      1.07431170	      0.94171219	     -0.28775581	      1.19594722	      0.86391383	     -0.18503300	      1.17724400	      0.85650055	     -0.32251652	      1.18659561	      0.86020719	     -0.25377476	      1.45966843	      0.51155592	     -0.14788638	      1.41464642	      0.51050829	     -0.25973588	      1.44112598	      0.63633989	     -0.07623138	      1.41140112	      0.68915666	     -0.14802792	      1.44812736	      0.61652478	     -0.17115865	      1.42429276	      0.06914808	     -0.13123151	      1.41592130	      0.06526535	     -0.19914858	      1.45204307	      0.14560755	     -0.07240725	      1.42883310	      0.20076387	     -0.13445536	      1.40093119	      0.50225764	     -0.19094268	      1.42916103	      0.08673197	     -0.17447503	      1.54063817	      0.04432308	     -0.18710260	      1.05171972	      0.44389129	     -0.41381942	      1.04381653	      0.44935209	     -0.30602701	      1.23621896	      0.52169380	     -0.36161548	      1.18456913	      0.60535820	     -0.39177059	      1.14498931	      0.52817599	     -0.39463753	      0.71799713	      0.16102348	     -0.38206932	      0.73495832	      0.15529309	     -0.31455856	      0.87652961	      0.15695044	     -0.35129352	      0.86395248	      0.24061795	     -0.35549335	      1.02977444	      0.46851747	     -0.33837889	      0.74097349	      0.16800639	     -0.34247688	      0.78750309	      0.04655806	     -0.36410031	      1.21513034	      1.32772899	     -0.16377266	      1.22513398	      1.33288136	     -0.31901354	      1.12195389	      1.40330211	     -0.25588249	      1.20809698	      1.33179140	     -0.24609043	      1.24589339	      1.13066740	     -0.25700336	      1.18384400	      0.85934700	     -0.24859000	      1.18858400	      0.84745500	     -0.19641800	      1.17446000	      0.84376600	     -0.30198300	      1.39737000	      0.48528100	     -0.20141800	      1.02673100	      0.45560800	     -0.33045600	      1.42745200	      0.07093800	     -0.19571900	      0.73321700	      0.15037600	     -0.32929900	      1.26196500	      0.93998600	     -0.26326100	      1.27560300	      0.94354800	     -0.16132500	      1.24832700	      0.93642300	     -0.36519700	      1.07012600	      0.97223200	     -0.19212200	      1.05586800	      0.97345200	     -0.27603900	      1.40353200	      0.48801700	     -0.14230100	      1.02444700	      0.46082200	     -0.38968300	      1.38765100	      0.49498300	     -0.26551300	      1.03118100	      0.45203000	     -0.27772300	      1.42357100	      0.07117700	     -0.15791800	      0.72723900	      0.15597900	     -0.36794000	      1.42677200	      0.07172900	     -0.22801000	      0.74554700	      0.15552900	     -0.30083500	      1.12632500	      1.42662200	     -0.25346500	      1.22122300	      1.35478400	     -0.16595900	      1.22399700	      1.35324800	     -0.32499100	      1.21038000	      1.35548400	     -0.24966600	      1.24503200	      1.15350200	     -0.25385700	      1.38279100	      0.58324300	     -0.05828300	      1.21292600	      0.52575800	     -0.35635500	      1.37946100	      0.65118300	     -0.12461100	      1.15623300	      0.61082000	     -0.38019800	      1.41102900	      0.57838100	     -0.15257600	      1.11883400	      0.53335800	     -0.37817000	      1.43133000	      0.14758900	     -0.09281600	      0.88549700	      0.16385700	     -0.33867300	      1.41170500	      0.20133300	     -0.15530900	      0.86734400	      0.24493800	     -0.34035100	      1.54829300	      0.04433300	     -0.19679100	      0.79570600	      0.04323700	     -0.32373800	   -125.53829781	    540.64501237	      5.31315072	      1.43276648	      0.00000000	     -0.18864632	     74.84813288	    228.10373399	     -9.11855757	      0.80272559	      0.00000000	     -0.31219370	      0.00000000	      0.27125925	      0.00000000	      0.00000000	     -0.08299855	      0.00000000	      1.18384361	      0.85934651	     -0.24859035	      1.18858361	      0.84745508	     -0.19641779	      1.17445993	      0.84376615	     -0.30198327	      1.39736986	      0.48528117	     -0.20141806	      1.02673137	      0.45560777	     -0.33045560	      1.42745245	      0.07093842	     -0.19571866	      0.73321730	      0.15037638	     -0.32929912	      1.26196527	      0.93998551	     -0.26326099	      1.27560341	      0.94354761	     -0.16132516	      1.24832726	      0.93642348	     -0.36519682	      1.07012570	      0.97223216	     -0.19212224	      1.05586767	      0.97345185	     -0.27603942	      1.40353215	      0.48801744	     -0.14230132	      1.02444661	      0.46082172	     -0.38968265	      1.38765061	      0.49498314	     -0.26551333	      1.03118098	      0.45202973	     -0.27772343	      1.42357111	      0.07117658	     -0.15791814	      0.72723883	      0.15597895	     -0.36794004	      1.42677152	      0.07172869	     -0.22800992	      0.74554664	      0.15552881	     -0.30083492	      1.12632525	      1.42662203	     -0.25346467	      1.22122324	      1.35478365	     -0.16595933	      1.22399735	      1.35324764	     -0.32499149	      1.21037960	      1.35548425	     -0.24966572	      1.24503231	      1.15350151	     -0.25385675	      1.38279092	      0.58324343	     -0.05828264	      1.21292567	      0.52575761	     -0.35635546	      1.37946105	      0.65118253	     -0.12461063	      1.15623271	      0.61082029	     -0.38019794	      1.41102910	      0.57838053	     -0.15257561	      1.11883414	      0.53335780	     -0.37816998	      1.43132973	      0.14758946	     -0.09281572	      0.88549727	      0.16385657	     -0.33867273	      1.41170478	      0.20133346	     -0.15530886	      0.86734444	      0.24493834	     -0.34035102	      1.54829335	      0.04433310	     -0.19679140	      0.79570591	      0.04323678	     -0.32373762
      0.55833000	      1.25706779	      0.91894070	     -0.26302932	      2.95576203	     -3.17988982	      7.87359806	     26.45431990	      0.44106828	     -1.62166821	    -26.99942260	     -3.82250823	    -22.13676775	     -8.55714532	      1.76892961	    -25.16832009	     -9.43071888	     -7.59808588	      4.94353301	     -8.38886902	      0.00000000	      0.00000000	      0.00000000	      0.00000000	      1.31737983	      0.94672070	     -0.17245364	      1.28164744	      0.93702233	     -0.38216474	      1.26859551	      0.91944728	     -0.26462254	      1.10649609	      0.94602441	     -0.20025349	      1.08934861	      0.94265484	     -0.28667590	      1.21099193	      0.86584660	     -0.18321983	      1.19237676	      0.85724034	     -0.32064579	      1.20168434	      0.86154347	     -0.25193281	      1.47196683	      0.51124585	     -0.14807372	      1.42676997	      0.51106237	     -0.25985743	      1.45452192	      0.63584639	     -0.07582635	      1.42510892	      0.68922217	     -0.14733735	      1.46122338	      0.61640734	     -0.17085297	      1.42449352	      0.06882181	     -0.13237372	      1.41597611	      0.06532925	     -0.20029382	      1.45442978	      0.14433406	     -0.07339792	      1.43275327	      0.20026338	     -0.13530859	      1.41335823	      0.50255126	     -0.19110911	      1.42983211	      0.08635757	     -0.17558126	      1.54109390	      0.04333871	     -0.18804382	      1.07184127	      0.44390505	     -0.41532472	      1.06468379	      0.44813842	     -0.30742508	      1.25564606	      0.52370357	     -0.36368710	      1.20262404	      0.60695458	     -0.39257834	      1.16408748	      0.52926681	     -0.39595785	      0.73173205	      0.16662244	     -0.38274661	      0.74921935	      0.15994462	     -0.31545750	      0.89043210	      0.15892179	     -0.35356983	      0.87959812	      0.24287054	     -0.35693223	      1.05038959	      0.46704628	     -0.33951011	      0.75523349	      0.17277086	     -0.34332434	      0.79050831	      0.04747994	     -0.36430404	      1.22990460	      1.32891640	     -0.16249221	      1.23987974	      1.33430191	     -0.31772702	      1.13666443	      1.40456372	     -0.25447656	      1.22285527	      1.33309446	     -0.24480283	      1.26077981	      1.13201107	     -0.25601554	      1.19895600	      0.86049300	     -0.24699500	      1.20415400	      0.84913400	     -0.19403600	      1.18983200	      0.84456600	     -0.29954100	      1.40951600	      0.48619700	     -0.20198000	      1.04709600	      0.45396600	     -0.33058500	      1.42801600	      0.07074100	     -0.19599000	      0.74717400	      0.15513000	     -0.33098900	      1.27732500	      0.94117600	     -0.26177700	      1.29113700	      0.94558200	     -0.16002900	      1.26351300	      0.93677100	     -0.36352600	      1.08504000	      0.97388700	     -0.19195300	      1.07098100	      0.97423400	     -0.27594900	      1.41597200	      0.48855700	     -0.14287800	      1.04414500	      0.45974600	     -0.38973000	      1.40019100	      0.49628900	     -0.26608300	      1.05288400	      0.45047400	     -0.27732300	      1.42466400	      0.07113800	     -0.15814000	      0.74061300	      0.16176700	     -0.36937100	      1.42727700	      0.07152200	     -0.22822500	      0.76013200	      0.15982500	     -0.30281700	      1.14075000	      1.42776300	     -0.25206200	      1.23579700	      1.35603900	     -0.16453300	      1.23903600	      1.35493300	     -0.32357500	      1.22519100	      1.35691300	     -0.24827600	      1.26073100	      1.15509400	     -0.25289500	      1.39611000	      0.58391900	     -0.05830800	      1.23283200	      0.52602200	     -0.35792900	      1.39321300	      0.65198300	     -0.12454800	      1.17580400	      0.61051800	     -0.38110400	      1.42427800	      0.57908000	     -0.15285600	      1.13874000	      0.53212800	     -0.37865600	      1.43548900	      0.14718200	     -0.09316100	      0.89937400	      0.16560100	     -0.34289400	      1.41625300	      0.20153100	     -0.15543700	      0.88321300	      0.24693700	     -0.34253700	      1.54917600	      0.04336500	     -0.19701100	      0.79960700	      0.04373800	     -0.32366700	   -132.81574194	    583.25157707	      1.67903586	      1.43775037	      0.00000000	     -0.18931189	     47.45344925	    153.12344478	    -10.91320914	      0.80768268	      0.00000000	     -0.31083429	      0.00000000	      0.31699228	      0.00000000	      0.00000000	      0.00469778	      0.00000000	      1.19895649	      0.86049294	     -0.24699464	      1.20415366	      0.84913373	     -0.19403619	      1.18983161	      0.84456557	     -0.29954052	      1.40951574	      0.48619729	     -0.20197979	      1.04709637	      0.45396641	     -0.33058512	      1.42801595	      0.07074109	     -0.19598961	      0.74717402	      0.15513004	     -0.33098900	      1.27732515	      0.94117630	     -0.26177746	      1.29113722	      0.94558185	     -0.16002868	      1.26351297	      0.93677074	     -0.36352623	      1.08504021	      0.97388738	     -0.19195266	      1.07098103	      0.97423416	     -0.27594927	      1.41597164	      0.48855674	     -0.14287814	      1.04414451	      0.45974588	     -0.38973013	      1.40019071	      0.49628872	     -0.26608321	      1.05288410	      0.45047387	     -0.27732340	      1.42466450	      0.07113759	     -0.15813977	      0.74061269	      0.16176710	     -0.36937064	      1.42727685	      0.07152154	     -0.22822519	      0.76013249	      0.15982540	     -0.30281737	      1.14075005	      1.42776334	     -0.25206241	      1.23579705	      1.35603940	     -0.16453305	      1.23903561	      1.35493302	     -0.32357523	      1.22519147	      1.35691285	     -0.24827592	      1.26073134	      1.15509355	     -0.25289473	      1.39610994	      0.58391887	     -0.05830810	      1.23283207	      0.52602160	     -0.35792896	      1.39321339	      0.65198332	     -0.12454833	      1.17580426	      0.61051828	     -0.38110396	      1.42427838	      0.57908046	     -0.15285574	      1.13873994	      0.53212845	     -0.37865606	      1.43548942	      0.14718165	     -0.09316123	      0.89937443	      0.16560146	     -0.34289402	      1.41625297	      0.20153116	     -0.15543653	      0.88321346	      0.24693705	     -0.34253687	      1.54917622	      0.04336484	     -0.19701141	      0.79960674	      0.04373794	     -0.32366735
      0.56667000	      1.27182811	      0.92049561	     -0.26188347	      3.00131292	     -3.70393949	      7.91295567	     25.89269437	      1.21542107	     -1.92219004	    -27.86792244	     -2.44960101	    -21.12763672	     -9.38525791	      1.03849428	    -27.32574313	    -13.73503714	     -7.56348042	      5.57243609	     -8.31775274	      0.00000000	      0.00000000	      0.00000000	      0.00000000	      1.33213783	      0.94915039	     -0.17157918	      1.29636957	      0.93750256	     -0.38118492	      1.28335512	      0.92099624	     -0.26348373	      1.12124895	      0.94804046	     -0.19932656	      1.10408622	      0.94386566	     -0.28571079	      1.22580879	      0.86810090	     -0.18158069	      1.20717180	      0.85822085	     -0.31891799	      1.21649029	      0.86316087	     -0.25024934	      1.48289134	      0.51050516	     -0.14813394	      1.43753801	      0.51124004	     -0.25985199	      1.46692850	      0.63501990	     -0.07539764	      1.43800763	      0.68898506	     -0.14666661	      1.47328068	      0.61586358	     -0.17050563	      1.42417599	      0.06858083	     -0.13327540	      1.41551531	      0.06544864	     -0.20119497	      1.45612162	      0.14316673	     -0.07417512	      1.43586290	      0.19976755	     -0.13595555	      1.42432302	      0.50257055	     -0.19113709	      1.42993570	      0.08605818	     -0.17645251	      1.54112519	      0.04280249	     -0.18873929	      1.09294947	      0.44392077	     -0.41714057	      1.08666421	      0.44684871	     -0.30914332	      1.27579728	      0.52632071	     -0.36619572	      1.22109862	      0.60895212	     -0.39370709	      1.18387770	      0.53065026	     -0.39761816	      0.74686888	      0.17188237	     -0.38310730	      0.76497781	      0.16425683	     -0.31608387	      0.90570040	      0.16072523	     -0.35582445	      0.89653218	      0.24490187	     -0.35833679	      1.07201689	      0.46542534	     -0.34094341	      0.77093478	      0.17720585	     -0.34390617	      0.79416552	      0.04898238	     -0.36393982	      1.24467882	      1.33029805	     -0.16129944	      1.25457460	      1.33597301	     -0.31652901	      1.15139436	      1.40612039	     -0.25309459	      1.23758747	      1.33463003	     -0.24359849	      1.27549870	      1.13356654	     -0.25520604	      1.21366000	      0.86171500	     -0.24539700	      1.21949000	      0.85119500	     -0.19163500	      1.20485100	      0.84567500	     -0.29705000	      1.42031200	      0.48677200	     -0.20220900	      1.06844000	      0.45212000	     -0.33067800	      1.42805100	      0.07061900	     -0.19608200	      0.76262700	      0.15975000	     -0.33277000	      1.29238200	      0.94268600	     -0.26041600	      1.30647600	      0.94800000	     -0.15892100	      1.27828700	      0.93737100	     -0.36191100	      1.09978600	      0.97585200	     -0.19180600	      1.08591900	      0.97533000	     -0.27588600	      1.42707900	      0.48878700	     -0.14312900	      1.06470200	      0.45846100	     -0.38972100	      1.41126400	      0.49715400	     -0.26643600	      1.07563700	      0.44728300	     -0.27750300	      1.42524400	      0.07112400	     -0.15818900	      0.75559800	      0.16737600	     -0.37088400	      1.42744100	      0.07165700	     -0.22826200	      0.77581200	      0.16413700	     -0.30477700	      1.15520400	      1.42910200	     -0.25065400	      1.25031100	      1.35748100	     -0.16318500	      1.25412300	      1.35688500	     -0.32222700	      1.24000100	      1.35856900	     -0.24696700	      1.27644300	      1.15692300	     -0.25208600	      1.40847000	      0.58432200	     -0.05814500	      1.25323100	      0.52663700	     -0.35970800	      1.40624200	      0.65229800	     -0.12426600	      1.19480800	      0.61012500	     -0.38160800	      1.43647000	      0.57927200	     -0.15292600	      1.15892700	      0.53083800	     -0.37925200	      1.43897900	      0.14678500	     -0.09331900	      0.91453600	      0.16728400	     -0.34690500	      1.41994200	      0.20186500	     -0.15523600	      0.90018400	      0.24866700	     -0.34481900	      1.54963400	      0.04287800	     -0.19704900	      0.80449900	      0.04485200	     -0.32369000	   -133.17797513	    621.37555678	     -2.82450798	      1.44068860	      0.00000000	     -0.18961598	     24.75963096	     96.13377331	    -10.83129971	      0.81403058	      0.00000000	     -0.30892343	      0.00000000	      0.23339345	      0.00000000	      0.00000000	      0.07028934	      0.00000000	      1.21366024	      0.86171460	     -0.24539697	      1.21948957	      0.85119468	     -0.19163464	      1.20485055	      0.84567505	     -0.29704997	      1.42031181	      0.48677185	     -0.20220868	      1.06844044	      0.45212048	     -0.33067778	      1.42805076	      0.07061874	     -0.19608167	      0.76262748	      0.15975000	     -0.33276960	      1.29238176	      0.94268554	     -0.26041636	      1.30647647	      0.94799995	     -0.15892132	      1.27828717	      0.93737113	     -0.36191142	      1.09978592	      0.97585189	     -0.19180618	      1.08591938	      0.97533000	     -0.27588561	      1.42707932	      0.48878703	     -0.14312917	      1.06470156	      0.45846143	     -0.38972068	      1.41126370	      0.49715433	     -0.26643592	      1.07563698	      0.44728303	     -0.27750346	      1.42524362	      0.07112443	     -0.15818888	      0.75559783	      0.16737555	     -0.37088370	      1.42744100	      0.07165698	     -0.22826160	      0.77581245	      0.16413715	     -0.30477691	      1.15520370	      1.42910182	     -0.25065413	      1.25031114	      1.35748065	     -0.16318531	      1.25412273	      1.35688508	     -0.32222658	      1.24000108	      1.35856915	     -0.24696708	      1.27644348	      1.15692282	     -0.25208572	      1.40847003	      0.58432204	     -0.05814509	      1.25323129	      0.52663666	     -0.35970819	      1.40624249	      0.65229803	     -0.12426619	      1.19480777	      0.61012542	     -0.38160819	      1.43646979	      0.57927203	     -0.15292624	      1.15892673	      0.53083760	     -0.37925172	      1.43897903	      0.14678545	     -0.09331863	      0.91453612	      0.16728415	     -0.34690511	      1.41994178	      0.20186505	     -0.15523620	      0.90018404	      0.24866660	     -0.34481904	      1.54963350	      0.04287761	     -0.19704877	      0.80449891	      0.04485175	     -0.32368982
